HIERARCHY
ROOT Hip
{
  OFFSET 0.0 0.0 0.0
  CHANNELS 6 Xposition Yposition Zposition Xrotation Yrotation Zrotation
  JOINT LowerSpine
  {
    OFFSET 0.0 9.281100273 -5.022399902
    CHANNELS 3 Xrotation Yrotation Zrotation
    JOINT MiddleSpine
    {
      OFFSET 0.0 8.469799995 0.442400008
      CHANNELS 3 Xrotation Yrotation Zrotation
      JOINT Chest
      {
        OFFSET 0.0 10.480400085 -2.332799911
        CHANNELS 3 Xrotation Yrotation Zrotation
        JOINT Neck
        {
          OFFSET 0.0 23.617099762 -0.4912
          CHANNELS 3 Xrotation Yrotation Zrotation
          JOINT Head
          {
            OFFSET 0.0 13.336799622 3.627599955
            CHANNELS 3 Xrotation Yrotation Zrotation
            End Site
            {
              OFFSET 0.0001 18.635000229 0.556299984
            }
          }
        }
        JOINT LClavicle
        {
          OFFSET 2.384299994 22.791599274 7.808499813
          CHANNELS 3 Xrotation Yrotation Zrotation
          JOINT LShoulder
          {
            OFFSET 13.929599762 3.269200087 -5.289800167
            CHANNELS 3 Xrotation Yrotation Zrotation
            JOINT LForearm
            {
              OFFSET 29.589399338 -0.105099998 -0.256399989
              CHANNELS 3 Xrotation Yrotation Zrotation
              JOINT LHand
              {
                OFFSET 24.683799744 0.071599998 -0.147799999
                CHANNELS 3 Xrotation Yrotation Zrotation
                End Site
                {
                  OFFSET 0.0 1.0 0.0
                }
              }
            }
          }
        }
        JOINT RClavicle
        {
          OFFSET -2.384299994 22.791599274 7.808499813
          CHANNELS 3 Xrotation Yrotation Zrotation
          JOINT RShoulder
          {
            OFFSET -13.932100296 3.26970005 -5.290699959
            CHANNELS 3 Xrotation Yrotation Zrotation
            JOINT RForearm
            {
              OFFSET -29.589399338 -0.105099998 -0.256399989
              CHANNELS 3 Xrotation Yrotation Zrotation
              JOINT RHand
              {
                OFFSET -24.683700562 0.071599998 -0.147799999
                CHANNELS 3 Xrotation Yrotation Zrotation
                End Site
                {
                  OFFSET 0.0 1.0 0.0
                }
              }
            }
          }
        }
      }
    }
  }
  JOINT RThigh
  {
    OFFSET -9.928500175 4.195400238 -0.818400025
    CHANNELS 3 Xrotation Yrotation Zrotation
    JOINT RShin
    {
      OFFSET -0.794499993 -43.184700012 0.0
      CHANNELS 3 Xrotation Yrotation Zrotation
      JOINT RFoot
      {
        OFFSET 0.0 -42.404701233 0.0
        CHANNELS 3 Xrotation Yrotation Zrotation
        JOINT RToe
        {
          OFFSET 0.0 -4.660699844 9.74600029
          CHANNELS 3 Xrotation Yrotation Zrotation
          End Site
          {
            OFFSET 0.0 0.0 6.538199902
          }
        }
      }
    }
  }
  JOINT LThigh
  {
    OFFSET 9.92840004 4.195700169 -0.818400025
    CHANNELS 3 Xrotation Yrotation Zrotation
    JOINT LShin
    {
      OFFSET 0.794499993 -43.185001373 0.0
      CHANNELS 3 Xrotation Yrotation Zrotation
      JOINT LFoot
      {
        OFFSET 0.0 -42.404701233 0.0
        CHANNELS 3 Xrotation Yrotation Zrotation
        JOINT LToe
        {
          OFFSET 0.0 -4.660699844 9.746100426
          CHANNELS 3 Xrotation Yrotation Zrotation
          End Site
          {
            OFFSET 0.0 0.0 6.538199902
          }
        }
      }
    }
  }
}
MOTION
Frames: 11
Frame Time: 0.0333333
1.582399964 87.878097534 2.107899904 -7.649578094 -0.290396988 0.520934999 -0.0 0.0 -0.0 1.984905481 5.61022377 1.314465761 6.358683109 18.647510529 3.732840061 -0.0 0.0 -0.0 -0.0 0.0 -0.0 0.0 0.0 -13.842967987 15.42864418 -25.807764053 -51.810600281 13.404233932 -22.471675873 -4.12474966 -0.0 0.0 -0.0 -0.0 0.0 11.914130211 22.969261169 46.807003021 40.669494629 7.460227013 14.156991959 6.114539146 -0.0 0.0 -0.0 3.610893965 13.632969856 -3.291274548 11.044264793 17.092689514 -3.881211519 -8.971812248 5.371724129 2.632785082 -0.0 0.0 -0.0 21.325107574 -0.228433043 -5.304468155 -3.003587008 -0.120425947 4.586516857 -2.750854969 0.617003977 0.313441008 -3e-06 0.0 0.0 
1.567899942 87.88420105 2.032099962 -7.674695969 -0.374738961 0.52488786 -0.0 0.0 -0.0 1.977883697 5.682024002 1.282664776 6.371757984 18.752969742 3.663212299 -0.0 0.0 -0.0 -0.0 0.0 -0.0 0.0 0.0 -13.805379868 17.02922821 -28.262624741 -50.087768555 13.707888603 -23.120384216 -2.325758457 -0.0 0.0 -0.0 -0.0 0.0 11.723480225 20.065086365 45.333679199 42.189880371 6.041327477 13.086453438 6.10618639 -0.0 0.0 -0.0 3.624821186 14.696217537 -3.316430807 11.045419693 16.99312973 -3.656728029 -8.819947243 4.527403831 2.61137867 -0.0 0.0 -0.0 21.247333527 -0.214028105 -5.371534824 -2.90024066 -0.119011991 4.698781967 -2.760967731 0.679893017 0.34551397 -3e-06 0.0 0.0 
1.550899982 87.886802673 2.017100096 -7.706253052 -0.384321988 0.512350976 -0.0 0.0 -0.0 1.974252939 5.71284008 1.271252036 6.381682873 18.828130722 3.627209902 -0.0 0.0 -0.0 -0.0 0.0 -0.0 0.0 0.0 -13.781769753 17.353694916 -29.031562805 -49.235198975 13.751011848 -23.25922966 -2.00246048 -0.0 0.0 -0.0 -0.0 0.0 11.613030434 17.190896988 43.637905121 43.962882996 5.667369843 12.21984005 4.951919079 -0.0 0.0 -0.0 3.655356884 14.897860527 -3.30239749 11.024663925 16.989274979 -3.617701054 -8.775298119 4.404116154 2.537935495 -0.0 0.0 -0.0 21.269170761 -0.217243969 -5.383351326 -2.888385057 -0.119008951 4.717964172 -2.778661489 0.727857113 0.370012075 -3e-06 0.0 0.0 
1.535699964 87.889602661 1.998800039 -7.719937325 -0.395126045 0.512385964 -0.0 0.0 -0.0 1.969091654 5.754146099 1.255924821 6.39447546 18.898374557 3.592705965 -0.0 0.0 -0.0 -0.0 0.0 -0.0 0.0 0.0 -13.77381897 17.685342789 -29.658922195 -48.567626953 13.70076561 -23.241947174 -2.175520182 -0.0 0.0 -0.0 -0.0 0.0 11.461770058 14.29084301 42.194149017 45.633041382 5.30960083 10.801939011 3.226016521 -0.0 0.0 -0.0 3.665863276 15.090021133 -3.306256056 11.007419586 16.983470917 -3.568845987 -8.747527122 4.296551228 2.474562407 -0.0 0.0 -0.0 21.23554039 -0.213614985 -5.368590832 -2.821665049 -0.116132975 4.712935925 -2.812350512 0.785915017 0.399834096 -3e-06 0.0 0.0 
1.521900058 87.889503479 1.977499962 -7.713445187 -0.42829904 0.524596095 -0.0 0.0 -0.0 1.96274364 5.801506996 1.238274932 6.406067371 18.980773926 3.556575537 -0.0 0.0 -0.0 -0.0 0.0 -0.0 0.0 0.0 -13.749752045 18.020374298 -30.237846375 -47.947994232 13.626670837 -23.26199913 -2.470236063 -0.0 0.0 -0.0 -0.0 0.0 11.279349327 11.565512657 40.959335327 46.736011505 4.84105587 9.096999168 1.983015299 -0.0 0.0 -0.0 3.644731522 15.272866249 -3.32815218 11.006421089 16.975330353 -3.51276803 -8.741307259 4.218755722 2.429383516 -0.0 0.0 -0.0 21.187913895 -0.214509904 -5.380053043 -2.794210911 -0.115373023 4.727993011 -2.851624966 0.873335004 0.444721937 -3e-06 0.0 0.0 
1.502500057 87.894096375 1.960299969 -7.729736328 -0.496065974 0.528183758 -0.0 0.0 -0.0 1.955313444 5.85264492 1.219109416 6.412403584 19.092309952 3.515671968 -0.0 0.0 -0.0 -0.0 0.0 -0.0 0.0 0.0 -13.741598129 18.327249527 -30.788709641 -47.430957794 13.593448639 -23.259244919 -2.585450649 -0.0 0.0 -0.0 -0.0 0.0 11.098150253 9.238611221 39.608627319 47.07542038 4.259106159 7.801383972 1.550571203 -0.0 0.0 -0.0 3.63237524 15.445509911 -3.345021963 11.010850906 16.96635437 -3.44685936 -8.698890686 4.173377037 2.401124239 -0.0 0.0 -0.0 21.175182343 -0.216268212 -5.390734673 -2.775998831 -0.114647008 4.729059219 -2.845804453 1.005664468 0.512027979 -3e-06 0.0 0.0 
1.468400002 87.91280365 1.950000048 -7.79118824 -0.603172004 0.495586962 -0.0 0.0 -0.0 1.946696997 5.907453537 1.198315501 6.41739893 19.215869904 3.473330498 -0.0 0.0 -0.0 -0.0 0.0 -0.0 0.0 0.0 -13.716661453 18.629049301 -31.283346176 -46.98097229 13.564348221 -23.326404572 -2.68941474 -0.0 0.0 -0.0 -0.0 0.0 10.900210381 7.16932106 38.237548828 46.825668335 3.609814882 6.749907017 1.44927001 -0.0 0.0 -0.0 3.650213242 15.607813835 -3.313710928 11.007829666 16.954776764 -3.396680117 -8.55257225 4.174409866 2.394655943 -0.0 0.0 -0.0 21.214115143 -0.214023992 -5.372150421 -2.762975931 -0.114128008 4.729621887 -2.776396513 1.136563778 0.577719986 -3e-06 0.0 0.0 
1.420400023 87.934898376 1.943500042 -7.865882397 -0.754638135 0.43000105 -0.0 0.0 -0.0 1.936833978 5.965760231 1.175645232 6.424936295 19.334255219 3.432912827 -0.0 0.0 -0.0 -0.0 0.0 -0.0 0.0 0.0 -13.709210396 18.910032272 -31.656967163 -46.729301453 13.579460144 -23.551679611 -2.593164682 -0.0 0.0 -0.0 -0.0 0.0 10.657792091 5.137095928 37.155387878 46.114936829 2.93518877 5.226644039 1.418544769 -0.0 0.0 -0.0 3.665438652 15.759980202 -3.228606462 11.008467674 16.936943054 -3.388295412 -8.367926598 4.236878872 2.421530962 -0.0 0.0 -0.0 21.26763916 -0.20899801 -5.332800865 -2.739144564 -0.115513988 4.742473125 -2.716732502 1.223444819 0.621096015 -3e-06 0.0 0.0 
1.367300034 87.946296692 1.942899942 -7.933054924 -0.917976022 0.351166964 -0.0 0.0 -0.0 1.925691366 6.027307987 1.150731802 6.429974079 19.462459564 3.392044306 -0.0 0.0 -0.0 -0.0 0.0 -0.0 0.0 0.0 -13.685740471 19.083465576 -31.890859604 -46.944850922 13.724069595 -23.811819077 -1.905064821 -0.0 0.0 -0.0 -0.0 0.0 10.382439613 3.193377733 36.24180603 44.887611389 2.237484455 3.282072544 1.43937695 -0.0 0.0 -0.0 3.668123722 15.899980545 -3.124809504 11.016958237 16.914409637 -3.391272306 -8.243067741 4.321975231 2.463949203 -0.0 0.0 -0.0 21.322435379 -0.205049068 -5.278715134 -2.715007067 -0.124955989 4.749125957 -2.735618591 1.32635355 0.673662722 -3e-06 0.0 0.0 
1.320299983 87.953697205 1.951099992 -8.020917892 -0.966568232 0.270913988 -0.0 0.0 -0.0 1.91325295 6.091762066 1.123179793 6.427489281 19.615430832 3.348392248 -0.0 0.0 -0.0 -0.0 0.0 -0.0 0.0 0.0 -13.660739899 19.131196976 -32.16462326 -47.424236298 13.895899773 -23.968040466 -1.129180074 -0.0 0.0 -0.0 -0.0 0.0 10.08588028 1.468516231 35.138328552 43.205913544 1.503361702 1.523945808 1.382256746 -0.0 0.0 -0.0 3.726476431 16.023704529 -3.021882772 11.000481606 16.891109467 -3.371435404 -8.142578125 4.320459843 2.458050966 -0.0 0.0 -0.0 21.39639473 -0.20299536 -5.184806824 -2.696413517 -0.147559002 4.747846127 -2.820241928 1.491036057 0.758669972 -3e-06 0.0 0.0 
1.292600036 87.971099854 1.961799979 -8.165289879 -0.787739992 0.196377009 -0.0 0.0 -0.0 1.899518132 6.158664227 1.09261179 6.428236961 19.764030457 3.306284428 -0.0 0.0 -0.0 -0.0 0.0 -0.0 0.0 0.0 -13.653211594 19.124586105 -32.699211121 -47.655437469 13.884389877 -24.135614395 -1.229504108 -0.0 0.0 -0.0 -0.0 0.0 9.767461777 -0.138378903 33.809616089 41.327480316 0.733276129 0.21737203 1.005738258 -0.0 0.0 -0.0 3.912075758 16.12808609 -2.928932667 10.9190979 16.869279861 -3.319907904 -7.979659557 4.153758049 2.355297327 -0.0 0.0 -0.0 21.48871994 -0.204100788 -5.040406227 -2.648932695 -0.18188405 4.770021915 -2.93500948 1.671653748 0.852732062 -3e-06 0.0 0.0 
